<svg xmlns="http://www.w3.org/2000/svg" viewBox="0 0 1600 1100" fill="none">
<defs>
  <linearGradient id="bg" x1="0" y1="0" x2="1" y2="1">
    <stop offset="0%" stop-color="hsl(36 24% 16%)"/>
    <stop offset="100%" stop-color="hsl(24 20% 7%)"/>
  </linearGradient>
  <linearGradient id="overlay" x1="0" y1="0" x2="0" y2="1">
    <stop offset="0%" stop-color="rgba(255,255,255,0.02)"/>
    <stop offset="100%" stop-color="rgba(0,0,0,0.28)"/>
  </linearGradient>
  <radialGradient id="glow" cx="70%" cy="15%" r="50%">
    <stop offset="0%" stop-color="hsl(42 84% 72%)" stop-opacity="0.36"/>
    <stop offset="100%" stop-color="hsl(42 84% 72%)" stop-opacity="0"/>
  </radialGradient>
  <filter id="blur24"><feGaussianBlur stdDeviation="24"/></filter>
  <filter id="blur10"><feGaussianBlur stdDeviation="10"/></filter>
</defs>
<rect width="100%" height="100%" fill="url(#bg)"/>
<rect width="100%" height="100%" fill="url(#glow)"/>
<rect y="720" width="100%" height="380" fill="rgba(29,20,16,0.94)"/><rect x="170" y="520" width="1240" height="290" rx="34" fill="rgba(64,43,30,0.96)"/><rect x="240" y="430" width="360" height="220" rx="28" fill="rgba(235,225,209,0.9)" transform="rotate(-8 240 430)"/><rect x="730" y="455" width="420" height="240" rx="28" fill="rgba(17,20,26,0.98)"/><rect x="770" y="505" width="340" height="18" rx="9" fill="rgba(255,255,255,0.12)"/><rect x="770" y="545" width="260" height="18" rx="9" fill="rgba(255,255,255,0.1)"/><rect x="770" y="585" width="310" height="18" rx="9" fill="rgba(255,255,255,0.08)"/><ellipse cx="1270" cy="570" rx="120" ry="120" fill="rgba(26,19,14,0.98)"/><path d="M1220 570 C1240 490 1310 490 1334 570 C1310 650 1240 650 1220 570Z" fill="rgba(170,117,67,0.78)"/>
<rect x="24" y="24" width="1552" height="1052" rx="32" stroke="rgba(255,255,255,0.14)"/>
<rect x="0" y="0" width="100%" height="100%" fill="rgba(255,255,255,0.02)"/>
</svg>