<svg xmlns="http://www.w3.org/2000/svg" viewBox="0 0 1600 1100" fill="none">
<defs>
  <linearGradient id="bg" x1="0" y1="0" x2="1" y2="1">
    <stop offset="0%" stop-color="hsl(34 34% 16%)"/>
    <stop offset="100%" stop-color="hsl(22 26% 8%)"/>
  </linearGradient>
  <linearGradient id="overlay" x1="0" y1="0" x2="0" y2="1">
    <stop offset="0%" stop-color="rgba(255,255,255,0.02)"/>
    <stop offset="100%" stop-color="rgba(0,0,0,0.28)"/>
  </linearGradient>
  <radialGradient id="glow" cx="70%" cy="15%" r="50%">
    <stop offset="0%" stop-color="hsl(28 90% 72%)" stop-opacity="0.36"/>
    <stop offset="100%" stop-color="hsl(28 90% 72%)" stop-opacity="0"/>
  </radialGradient>
  <filter id="blur24"><feGaussianBlur stdDeviation="24"/></filter>
  <filter id="blur10"><feGaussianBlur stdDeviation="10"/></filter>
</defs>
<rect width="100%" height="100%" fill="url(#bg)"/>
<rect width="100%" height="100%" fill="url(#glow)"/>
<rect y="640" width="100%" height="460" fill="rgba(31,18,14,0.94)"/><rect x="140" y="690" width="1320" height="160" rx="28" fill="rgba(46,26,18,0.96)"/><circle cx="340" cy="770" r="132" fill="rgba(239,231,221,0.94)"/><circle cx="340" cy="770" r="108" fill="rgba(247,243,237,0.96)"/><circle cx="760" cy="780" r="160" fill="rgba(239,231,221,0.94)"/><circle cx="760" cy="780" r="136" fill="rgba(247,243,237,0.96)"/><circle cx="1180" cy="770" r="132" fill="rgba(239,231,221,0.94)"/><circle cx="1180" cy="770" r="108" fill="rgba(247,243,237,0.96)"/><ellipse cx="760" cy="780" rx="68.2" ry="48.36" fill="rgba(168,79,46,0.9)"/><ellipse cx="784" cy="772" rx="32.24" ry="17.360000000000003" fill="rgba(120,160,86,0.82)"/><ellipse cx="340" cy="770" rx="48.400000000000006" ry="34.32" fill="rgba(168,79,46,0.9)"/><ellipse cx="364" cy="762" rx="22.880000000000003" ry="12.32" fill="rgba(120,160,86,0.82)"/><ellipse cx="1180" cy="770" rx="48.400000000000006" ry="34.32" fill="rgba(168,79,46,0.9)"/><ellipse cx="1204" cy="762" rx="22.880000000000003" ry="12.32" fill="rgba(120,160,86,0.82)"/><path d="M250 640 L268 510 L288 640" stroke="rgba(255,255,255,0.22)" stroke-width="5" fill="none"/><ellipse cx="269" cy="485" rx="40" ry="18" fill="rgba(255,255,255,0.12)" filter="url(#blur10)"/><path d="M640 640 L658 510 L678 640" stroke="rgba(255,255,255,0.22)" stroke-width="5" fill="none"/><ellipse cx="659" cy="485" rx="40" ry="18" fill="rgba(255,255,255,0.12)" filter="url(#blur10)"/><path d="M1070 640 L1088 510 L1108 640" stroke="rgba(255,255,255,0.22)" stroke-width="5" fill="none"/><ellipse cx="1089" cy="485" rx="40" ry="18" fill="rgba(255,255,255,0.12)" filter="url(#blur10)"/><path d="M1320 640 L1338 510 L1358 640" stroke="rgba(255,255,255,0.22)" stroke-width="5" fill="none"/><ellipse cx="1339" cy="485" rx="40" ry="18" fill="rgba(255,255,255,0.12)" filter="url(#blur10)"/>
<rect x="24" y="24" width="1552" height="1052" rx="32" stroke="rgba(255,255,255,0.14)"/>
<rect x="0" y="0" width="100%" height="100%" fill="rgba(255,255,255,0.02)"/>
</svg>