<svg xmlns="http://www.w3.org/2000/svg" viewBox="0 0 1600 1100" fill="none">
<defs>
  <linearGradient id="bg" x1="0" y1="0" x2="1" y2="1">
    <stop offset="0%" stop-color="hsl(222 22% 18%)"/>
    <stop offset="100%" stop-color="hsl(206 18% 6%)"/>
  </linearGradient>
  <linearGradient id="overlay" x1="0" y1="0" x2="0" y2="1">
    <stop offset="0%" stop-color="rgba(255,255,255,0.02)"/>
    <stop offset="100%" stop-color="rgba(0,0,0,0.28)"/>
  </linearGradient>
  <radialGradient id="glow" cx="70%" cy="15%" r="50%">
    <stop offset="0%" stop-color="hsl(206 86% 74%)" stop-opacity="0.36"/>
    <stop offset="100%" stop-color="hsl(206 86% 74%)" stop-opacity="0"/>
  </radialGradient>
  <filter id="blur24"><feGaussianBlur stdDeviation="24"/></filter>
  <filter id="blur10"><feGaussianBlur stdDeviation="10"/></filter>
</defs>
<rect width="100%" height="100%" fill="url(#bg)"/>
<rect width="100%" height="100%" fill="url(#glow)"/>
<rect x="120" y="320" width="90" height="220" rx="18" fill="rgba(39,46,56,0.8)"/><rect x="240" y="360" width="80" height="180" rx="18" fill="rgba(39,46,56,0.8)"/><rect x="360" y="280" width="120" height="260" rx="18" fill="rgba(39,46,56,0.8)"/><rect x="520" y="330" width="110" height="210" rx="18" fill="rgba(39,46,56,0.8)"/><rect x="1180" y="350" width="160" height="190" rx="18" fill="rgba(39,46,56,0.8)"/><rect x="1360" y="290" width="90" height="250" rx="18" fill="rgba(39,46,56,0.8)"/><rect y="720" width="100%" height="380" fill="hsl(214 10% 14%)"/><path d="M0 760 C330 720 530 760 820 734 C1120 708 1330 744 1600 712" stroke="rgba(255,255,255,0.14)" stroke-width="8"/><rect x="320" y="560" width="770" height="180" rx="48" fill="rgba(10,12,16,0.98)"/><rect x="440" y="490" width="420" height="130" rx="34" fill="rgba(15,18,24,0.96)"/><rect x="490" y="520" width="150" height="66" rx="16" fill="rgba(128,165,194,0.26)"/><rect x="658" y="520" width="150" height="66" rx="16" fill="rgba(128,165,194,0.26)"/><rect x="876" y="530" width="150" height="56" rx="14" fill="rgba(128,165,194,0.18)"/><circle cx="510" cy="754" r="78" fill="rgba(18,22,28,0.98)"/><circle cx="510" cy="754" r="34" fill="rgba(114,124,136,0.55)"/><circle cx="940" cy="754" r="78" fill="rgba(18,22,28,0.98)"/><circle cx="940" cy="754" r="34" fill="rgba(114,124,136,0.55)"/><ellipse cx="338" cy="640" rx="56" ry="26" fill="rgba(255,235,177,0.28)" filter="url(#blur10)"/><ellipse cx="1080" cy="640" rx="56" ry="26" fill="rgba(255,88,72,0.18)" filter="url(#blur10)"/>
<rect x="24" y="24" width="1552" height="1052" rx="32" stroke="rgba(255,255,255,0.14)"/>
<rect x="0" y="0" width="100%" height="100%" fill="rgba(255,255,255,0.02)"/>
</svg>