<svg xmlns="http://www.w3.org/2000/svg" viewBox="0 0 1600 1100" fill="none">
<defs>
  <linearGradient id="bg" x1="0" y1="0" x2="1" y2="1">
    <stop offset="0%" stop-color="hsl(22 72% 22%)"/>
    <stop offset="100%" stop-color="hsl(8 58% 10%)"/>
  </linearGradient>
  <linearGradient id="overlay" x1="0" y1="0" x2="0" y2="1">
    <stop offset="0%" stop-color="rgba(255,255,255,0.02)"/>
    <stop offset="100%" stop-color="rgba(0,0,0,0.28)"/>
  </linearGradient>
  <radialGradient id="glow" cx="70%" cy="15%" r="50%">
    <stop offset="0%" stop-color="hsl(35 96% 74%)" stop-opacity="0.36"/>
    <stop offset="100%" stop-color="hsl(35 96% 74%)" stop-opacity="0"/>
  </radialGradient>
  <filter id="blur24"><feGaussianBlur stdDeviation="24"/></filter>
  <filter id="blur10"><feGaussianBlur stdDeviation="10"/></filter>
</defs>
<rect width="100%" height="100%" fill="url(#bg)"/>
<rect width="100%" height="100%" fill="url(#glow)"/>
<rect y="0" width="100%" height="100%" fill="url(#bg)"/><circle cx="1180" cy="190" r="132" fill="hsl(35 96% 74%)" fill-opacity="0.48" filter="url(#blur10)"/><path d="M0 750 C120 600 160 420 300 390 C420 360 470 570 610 610 C750 650 820 430 980 430 C1120 430 1180 660 1320 660 C1430 660 1510 570 1600 490 V1100 H0Z" fill="hsl(19 54% 34%)"/><path d="M0 820 C180 740 300 820 480 760 C620 714 760 822 920 762 C1120 686 1280 812 1600 740 V1100 H0Z" fill="hsl(22 44% 20%)" opacity="0.92"/><ellipse cx="260" cy="290" rx="72.16" ry="88" fill="rgba(27,22,25,0.95)"/><path d="M211.6 232.8 Q260 191.44 308.4 232.8" stroke="rgba(255,255,255,0.14)" stroke-width="4" fill="none"/><path d="M216.0 347.2 L245.92 382.4 H274.08 L304.0 347.2" fill="rgba(31,24,24,0.95)"/><line x1="244.16" y1="348.08" x2="252.96" y2="379.76" stroke="rgba(255,255,255,0.18)"/><line x1="275.84" y1="348.08" x2="267.04" y2="379.76" stroke="rgba(255,255,255,0.18)"/><ellipse cx="540" cy="220" rx="98.39999999999999" ry="120" fill="rgba(27,22,25,0.95)"/><path d="M474.0 142.0 Q540 85.6 606.0 142.0" stroke="rgba(255,255,255,0.14)" stroke-width="4" fill="none"/><path d="M480.0 298.0 L520.8 346.0 H559.2 L600.0 298.0" fill="rgba(31,24,24,0.95)"/><line x1="518.4" y1="299.2" x2="530.4" y2="342.4" stroke="rgba(255,255,255,0.18)"/><line x1="561.6" y1="299.2" x2="549.6" y2="342.4" stroke="rgba(255,255,255,0.18)"/><ellipse cx="920" cy="320" rx="62.31999999999999" ry="76" fill="rgba(27,22,25,0.95)"/><path d="M878.2 270.6 Q920 234.88 961.8 270.6" stroke="rgba(255,255,255,0.14)" stroke-width="4" fill="none"/><path d="M882.0 369.4 L907.84 399.8 H932.16 L958.0 369.4" fill="rgba(31,24,24,0.95)"/><line x1="906.32" y1="370.16" x2="913.92" y2="397.52" stroke="rgba(255,255,255,0.18)"/><line x1="933.68" y1="370.16" x2="926.08" y2="397.52" stroke="rgba(255,255,255,0.18)"/><ellipse cx="1210" cy="260" rx="85.28" ry="104" fill="rgba(27,22,25,0.95)"/><path d="M1152.8 192.39999999999998 Q1210 143.51999999999998 1267.2 192.39999999999998" stroke="rgba(255,255,255,0.14)" stroke-width="4" fill="none"/><path d="M1158.0 327.6 L1193.36 369.2 H1226.64 L1262.0 327.6" fill="rgba(31,24,24,0.95)"/><line x1="1191.28" y1="328.64" x2="1201.68" y2="366.08" stroke="rgba(255,255,255,0.18)"/><line x1="1228.72" y1="328.64" x2="1218.32" y2="366.08" stroke="rgba(255,255,255,0.18)"/><ellipse cx="1380" cy="350" rx="55.76" ry="68" fill="rgba(27,22,25,0.95)"/><path d="M1342.6 305.8 Q1380 273.84 1417.4 305.8" stroke="rgba(255,255,255,0.14)" stroke-width="4" fill="none"/><path d="M1346.0 394.2 L1369.12 421.4 H1390.88 L1414.0 394.2" fill="rgba(31,24,24,0.95)"/><line x1="1367.76" y1="394.88" x2="1374.56" y2="419.36" stroke="rgba(255,255,255,0.18)"/><line x1="1392.24" y1="394.88" x2="1385.44" y2="419.36" stroke="rgba(255,255,255,0.18)"/>
<rect x="24" y="24" width="1552" height="1052" rx="32" stroke="rgba(255,255,255,0.14)"/>
<rect x="0" y="0" width="100%" height="100%" fill="rgba(255,255,255,0.02)"/>
</svg>