<svg xmlns="http://www.w3.org/2000/svg" viewBox="0 0 1600 1100" fill="none">
<defs>
  <linearGradient id="bg" x1="0" y1="0" x2="1" y2="1">
    <stop offset="0%" stop-color="hsl(204 32% 18%)"/>
    <stop offset="100%" stop-color="hsl(184 24% 8%)"/>
  </linearGradient>
  <linearGradient id="overlay" x1="0" y1="0" x2="0" y2="1">
    <stop offset="0%" stop-color="rgba(255,255,255,0.02)"/>
    <stop offset="100%" stop-color="rgba(0,0,0,0.28)"/>
  </linearGradient>
  <radialGradient id="glow" cx="70%" cy="15%" r="50%">
    <stop offset="0%" stop-color="hsl(210 70% 74%)" stop-opacity="0.36"/>
    <stop offset="100%" stop-color="hsl(210 70% 74%)" stop-opacity="0"/>
  </radialGradient>
  <filter id="blur24"><feGaussianBlur stdDeviation="24"/></filter>
  <filter id="blur10"><feGaussianBlur stdDeviation="10"/></filter>
</defs>
<rect width="100%" height="100%" fill="url(#bg)"/>
<rect width="100%" height="100%" fill="url(#glow)"/>
<rect y="0" width="100%" height="100%" fill="hsl(200 20% 24%)"/><rect y="760" width="100%" height="340" fill="hsl(210 16% 14%)"/><rect x="980" y="190" width="420" height="430" rx="28" fill="rgba(219,226,234,0.12)" stroke="rgba(255,255,255,0.15)"/><rect x="1008" y="218" width="364" height="374" rx="22" fill="url(#glow)"/><path d="M1190 218 V592" stroke="rgba(255,255,255,0.16)" stroke-width="4"/><rect x="180" y="430" width="820" height="240" rx="46" fill="rgba(210,200,186,0.9)"/><rect x="228" y="470" width="724" height="170" rx="34" fill="rgba(225,217,205,0.95)"/><rect x="220" y="300" width="740" height="190" rx="52" fill="rgba(196,180,164,0.95)"/><rect x="300" y="360" width="140" height="88" rx="26" fill="rgba(243,238,231,0.95)"/><rect x="500" y="360" width="140" height="88" rx="26" fill="rgba(243,238,231,0.95)"/><rect x="700" y="360" width="140" height="88" rx="26" fill="rgba(243,238,231,0.95)"/><rect x="170" y="480" width="120" height="120" rx="22" fill="rgba(58,46,38,0.92)"/><rect x="204" y="360" width="52" height="120" rx="14" fill="rgba(215,197,172,0.22)"/><ellipse cx="230" cy="342" rx="60" ry="34" fill="rgba(255,233,191,0.32)" filter="url(#blur10)"/><rect x="840" y="480" width="120" height="120" rx="22" fill="rgba(58,46,38,0.92)"/><rect x="874" y="360" width="52" height="120" rx="14" fill="rgba(215,197,172,0.22)"/><ellipse cx="900" cy="342" rx="60" ry="34" fill="rgba(255,233,191,0.32)" filter="url(#blur10)"/><rect x="180" y="735" width="220" height="90" rx="24" fill="rgba(231,219,201,0.86)"/>
<rect x="24" y="24" width="1552" height="1052" rx="32" stroke="rgba(255,255,255,0.14)"/>
<rect x="0" y="0" width="100%" height="100%" fill="rgba(255,255,255,0.02)"/>
</svg>