<svg xmlns="http://www.w3.org/2000/svg" viewBox="0 0 1600 1100" fill="none">
<defs>
  <linearGradient id="bg" x1="0" y1="0" x2="1" y2="1">
    <stop offset="0%" stop-color="hsl(199 48% 20%)"/>
    <stop offset="100%" stop-color="hsl(184 38% 8%)"/>
  </linearGradient>
  <linearGradient id="overlay" x1="0" y1="0" x2="0" y2="1">
    <stop offset="0%" stop-color="rgba(255,255,255,0.02)"/>
    <stop offset="100%" stop-color="rgba(0,0,0,0.28)"/>
  </linearGradient>
  <radialGradient id="glow" cx="70%" cy="15%" r="50%">
    <stop offset="0%" stop-color="hsl(214 86% 74%)" stop-opacity="0.36"/>
    <stop offset="100%" stop-color="hsl(214 86% 74%)" stop-opacity="0"/>
  </radialGradient>
  <filter id="blur24"><feGaussianBlur stdDeviation="24"/></filter>
  <filter id="blur10"><feGaussianBlur stdDeviation="10"/></filter>
</defs>
<rect width="100%" height="100%" fill="url(#bg)"/>
<rect width="100%" height="100%" fill="url(#glow)"/>
<path d="M0 620 C260 570 460 650 690 610 C930 570 1180 640 1600 560 V1100 H0Z" fill="hsl(196 64% 26%)"/><path d="M0 760 C260 720 540 790 840 740 C1080 700 1320 770 1600 730 V1100 H0Z" fill="rgba(8,18,26,0.46)"/><rect x="230" y="340" width="860" height="350" rx="34" fill="rgba(228,214,196,0.92)"/><rect x="290" y="400" width="360" height="210" rx="18" fill="rgba(255,255,255,0.18)" stroke="rgba(255,255,255,0.18)"/><rect x="700" y="400" width="320" height="210" rx="18" fill="rgba(255,255,255,0.16)" stroke="rgba(255,255,255,0.18)"/><rect x="1080" y="360" width="170" height="330" rx="22" fill="rgba(246,232,213,0.94)"/><rect x="210" y="660" width="1040" height="110" rx="26" fill="rgba(227,217,205,0.94)"/><rect x="700" y="750" width="560" height="170" rx="30" fill="rgba(68,178,214,0.95)"/><rect x="718" y="768" width="524" height="134" rx="24" fill="rgba(90,204,232,0.95)"/><line x1="780" y1="780" x2="940" y2="780" stroke="rgba(255,255,255,0.16)" stroke-width="4"/>
<rect x="24" y="24" width="1552" height="1052" rx="32" stroke="rgba(255,255,255,0.14)"/>
<rect x="0" y="0" width="100%" height="100%" fill="rgba(255,255,255,0.02)"/>
</svg>